<?xml version="1.0" encoding="UTF-8" standalone="no"?>
<!-- Created with Inkscape (http://www.inkscape.org/) -->

<svg
   width="128.0px"
   height="128.0px"
   viewBox="0 0 128.0 128.0"
   version="1.1"
   id="SVGRoot"
   sodipodi:docname="PufferOrbPuffed.svg"
   xml:space="preserve"
   inkscape:version="1.2.2 (732a01da63, 2022-12-09)"
   xmlns:inkscape="http://www.inkscape.org/namespaces/inkscape"
   xmlns:sodipodi="http://sodipodi.sourceforge.net/DTD/sodipodi-0.dtd"
   xmlns="http://www.w3.org/2000/svg"
   xmlns:svg="http://www.w3.org/2000/svg"><sodipodi:namedview
     id="namedview5324"
     pagecolor="#505050"
     bordercolor="#eeeeee"
     borderopacity="1"
     inkscape:showpageshadow="0"
     inkscape:pageopacity="0"
     inkscape:pagecheckerboard="0"
     inkscape:deskcolor="#505050"
     inkscape:document-units="px"
     showgrid="true"
     inkscape:zoom="4.1776837"
     inkscape:cx="29.322469"
     inkscape:cy="74.203799"
     inkscape:window-width="1920"
     inkscape:window-height="1009"
     inkscape:window-x="1912"
     inkscape:window-y="-8"
     inkscape:window-maximized="1"
     inkscape:current-layer="layer2"><inkscape:grid
       type="xygrid"
       id="grid5447" /></sodipodi:namedview><defs
     id="defs5319"><inkscape:path-effect
       effect="powerclip"
       id="path-effect5148"
       is_visible="true"
       lpeversion="1"
       inverse="true"
       flatten="false"
       hide_clip="false"
       message="Jeśli po konwersji przycięcia na ścieżki nie zostanie spłaszczony wynik, użyj reguły wypełniania w oknie dialogowym &lt;b&gt;wypełnienie i obrys&lt;/b&gt; ." /><clipPath
       clipPathUnits="userSpaceOnUse"
       id="clipPath4685"><circle
         style="fill:#e3b913;fill-opacity:1;stroke:#000000;stroke-width:5.44709;stroke-linejoin:miter;stroke-dasharray:none;stroke-dashoffset:0;stroke-opacity:1"
         id="circle4687"
         cx="64.169258"
         cy="63.830742"
         r="61.209633" /></clipPath><clipPath
       clipPathUnits="userSpaceOnUse"
       id="clipPath5144"><path
         id="lpe_path-effect5148"
         style="fill:#e3b913;fill-opacity:1;stroke:#000000;stroke-width:1.17716;stroke-linejoin:miter;stroke-dasharray:none;stroke-dashoffset:0;stroke-opacity:1"
         class="powerclip"
         d="M -5,-5 H 40.332 V 40.332 H -5 Z M 30.893892,17.666 A 13.227892,13.227892 0 0 0 17.666,4.4381084 13.227892,13.227892 0 0 0 4.4381084,17.666 13.227892,13.227892 0 0 0 17.666,30.893892 13.227892,13.227892 0 0 0 30.893892,17.666 Z" /></clipPath></defs><g
     inkscape:label="Body"
     inkscape:groupmode="layer"
     id="layer1"><circle
       style="fill:#e3b913;fill-opacity:1;stroke:#000000;stroke-width:4.26459;stroke-linejoin:miter;stroke-dasharray:none;stroke-dashoffset:0;stroke-opacity:1"
       id="circle4671"
       cx="64"
       cy="64"
       r="47.921719" /><ellipse
       style="fill:#ece5a4;fill-opacity:1;stroke:none;stroke-width:3.77441;stroke-linejoin:round;stroke-dasharray:none;paint-order:markers fill stroke"
       id="path3936"
       cx="64"
       cy="123.84676"
       rx="82.065292"
       ry="51.067253"
       inkscape:label="path3936"
       clip-path="url(#clipPath4685)"
       transform="matrix(0.7462179,0,0,0.74212158,16.115751,16.99485)" /></g><g
     inkscape:groupmode="layer"
     id="layer2"
     inkscape:label="Face"><g
       aria-label="⊙ . ⊙"
       id="text915"
       style="font-size:19.3392px;font-family:Arial;-inkscape-font-specification:Arial;fill:#d15c9d;stroke:#000000;stroke-width:2.34873;stroke-linejoin:round;paint-order:markers fill stroke"><path
         d="m 48.253852,69.958837 q -2.4174,0 -4.126577,-1.699734 -1.699734,-1.709177 -1.699734,-4.126577 0,-2.4174 1.699734,-4.117134 1.709177,-1.709178 4.126577,-1.709178 2.4174,0 4.117134,1.709178 1.709178,1.699734 1.709178,4.117134 0,2.4174 -1.709178,4.126577 -1.699734,1.699734 -4.117134,1.699734 z m 0,-0.934854 q 2.030238,0 3.456127,-1.435331 1.435331,-1.435331 1.435331,-3.456126 0,-2.030238 -1.435331,-3.456127 -1.425889,-1.435331 -3.456127,-1.435331 -2.030238,0 -3.465569,1.435331 -1.425888,1.425889 -1.425888,3.456127 0,2.020795 1.435331,3.456126 1.435331,1.435331 3.456126,1.435331 z m -1.048169,-3.843288 v -2.096339 h 2.096339 v 2.096339 z"
         id="path5186" /><path
         d="m 63.069869,69.722763 v -1.935808 h 1.935808 v 1.935808 z"
         id="path5188" /><path
         d="m 79.74615,69.958837 q -2.4174,0 -4.126577,-1.699734 -1.699734,-1.709177 -1.699734,-4.126577 0,-2.4174 1.699734,-4.117134 1.709177,-1.709178 4.126577,-1.709178 2.4174,0 4.117134,1.709178 1.709178,1.699734 1.709178,4.117134 0,2.4174 -1.709178,4.126577 -1.699734,1.699734 -4.117134,1.699734 z m 0,-0.934854 q 2.030239,0 3.456127,-1.435331 1.435331,-1.435331 1.435331,-3.456126 0,-2.030238 -1.435331,-3.456127 -1.425888,-1.435331 -3.456127,-1.435331 -2.030238,0 -3.465569,1.435331 -1.425888,1.425889 -1.425888,3.456127 0,2.020795 1.435331,3.456126 1.435331,1.435331 3.456126,1.435331 z m -1.048169,-3.843288 v -2.096339 h 2.096339 v 2.096339 z"
         id="path5190" /></g><path
       d="M 30.278,30.036 27.59,24.723 c 1.068,-1.5 1.801,-3.248 2.102,-5.144 l 5.64,-2.084 -5.658,-1.857 c -0.317,-1.89 -1.069,-3.63 -2.153,-5.119 L 30.038,5.054 24.725,7.742 C 23.225,6.673 21.475,5.94 19.579,5.639 L 17.495,0 15.639,5.654 C 13.748,5.974 12.008,6.726 10.517,7.81 L 5.054,5.293 7.742,10.608 c -1.069,1.5 -1.801,3.248 -2.101,5.144 L 0,17.836 5.658,19.691 c 0.319,1.892 1.07,3.632 2.154,5.119 l -2.516,5.465 5.315,-2.688 c 1.5,1.069 3.249,1.803 5.144,2.104 l 2.083,5.641 1.857,-5.658 c 1.89,-0.318 3.631,-1.07 5.121,-2.154 z M 9.474,17.667 c 0,-4.518 3.675,-8.193 8.191,-8.193 4.518,0 8.189,3.676 8.189,8.193 0,4.517 -3.674,8.19 -8.189,8.19 -4.517,0 -8.191,-3.671 -8.191,-8.19 z"
       id="path5102"
       style="fill:#e6e6e6"
       transform="scale(3.6227782)"
       clip-path="url(#clipPath5144)" /></g></svg>
